<svg xmlns="http://www.w3.org/2000/svg" width="868.136" height="572.68" viewBox="0 0 868.136 572.68">
  <g id="Group_10" data-name="Group 10" transform="translate(0 0)">
    <path id="Path_90" data-name="Path 90" d="M969.807,735.731l.951-1.759c-12.753-6.9-28.626-15.481-36.916-29.567-8.172-13.886-8.356-32.743-.479-49.211,6.7-14.016,19.018-26.572,35.611-36.313,3.273-1.921,6.709-3.742,10.031-5.5,8.031-4.256,16.336-8.658,23.184-14.9,9.432-8.6,16.568-23.035,11.249-35.891a23.856,23.856,0,0,0-20.677-14.467l-.113,2a21.861,21.861,0,0,1,18.948,13.248c4.943,11.947-1.839,25.5-10.754,33.636-6.661,6.074-14.852,10.415-22.773,14.613-3.342,1.771-6.8,3.6-10.108,5.546-16.938,9.943-29.526,22.8-36.4,37.174-8.16,17.06-7.946,36.637.559,51.089C940.691,719.985,956.835,728.716,969.807,735.731Z" transform="translate(-165.934 -163.66)" fill="#f1f1f1"/>
    <ellipse id="Ellipse_75" data-name="Ellipse 75" cx="17.5" cy="8.5" rx="17.5" ry="8.5" transform="translate(796.652 377.997)" fill="#f1f1f1"/>
    <ellipse id="Ellipse_76" data-name="Ellipse 76" cx="17.5" cy="8.5" rx="17.5" ry="8.5" transform="translate(782.652 433.997)" fill="#f1f1f1"/>
    <ellipse id="Ellipse_77" data-name="Ellipse 77" cx="17.5" cy="8.5" rx="17.5" ry="8.5" transform="translate(814.652 442.997)" fill="#f1f1f1"/>
    <ellipse id="Ellipse_78" data-name="Ellipse 78" cx="17.5" cy="8.5" rx="17.5" ry="8.5" transform="translate(764.652 489.997)" fill="#f1f1f1"/>
    <ellipse id="Ellipse_79" data-name="Ellipse 79" cx="17.5" cy="8.5" rx="17.5" ry="8.5" transform="translate(729.652 489.997)" fill="#f1f1f1"/>
    <path id="Path_91" data-name="Path 91" d="M756.676,512.124a8,8,0,0,0,6.8-10.213l23.139-16.528-13.789-5.31-19.859,16.509a8.045,8.045,0,0,0,3.71,15.541Z" transform="translate(-165.934 -163.66)" fill="#ffb7b7"/>
    <path id="Path_92" data-name="Path 92" d="M769.522,501.239l-7.676-13.11.163-.186,30.971-35.259,24.046-41.008,20.881,2.661.308,6.312-.062.094-33.175,49.87-.035.03Z" transform="translate(-165.934 -163.66)" fill="#3f3d56"/>
    <path id="Path_93" data-name="Path 93" d="M763.057,511.643l-41.488,23.481-30.361-53.646L732.7,458Z" transform="translate(-165.934 -163.66)" fill="#e5e5e5"/>
    <rect id="Rectangle_66" data-name="Rectangle 66" width="25.563" height="4.392" transform="matrix(0.87, -0.493, 0.493, 0.87, 543.373, 327.345)" fill="#6c63ff"/>
    <rect id="Rectangle_67" data-name="Rectangle 67" width="25.563" height="4.392" transform="matrix(0.87, -0.493, 0.493, 0.87, 548.998, 337.283)" fill="#6c63ff"/>
    <rect id="Rectangle_68" data-name="Rectangle 68" width="25.563" height="4.392" transform="matrix(0.87, -0.493, 0.493, 0.87, 554.622, 347.223)" fill="#6c63ff"/>
    <path id="Path_94" data-name="Path 94" d="M705.915,559.425H694.107l-5.618-45.548h17.428Z" fill="#ffb7b7"/>
    <path id="Path_95" data-name="Path 95" d="M874.861,734.532H836.785v-.482a14.821,14.821,0,0,1,14.819-14.82h23.257Z" transform="translate(-165.934 -163.66)" fill="#2f2e41"/>
    <path id="Path_96" data-name="Path 96" d="M604.285,559.039,592.8,556.3l5.113-45.607,16.951,4.048Z" fill="#ffb7b7"/>
    <path id="Path_97" data-name="Path 97" d="M770.49,734.532l-37.035-8.843.112-.468a14.821,14.821,0,0,1,17.857-10.973h0l22.62,5.4Z" transform="translate(-165.934 -163.66)" fill="#2f2e41"/>
    <path id="Path_98" data-name="Path 98" d="M816.113,390.852V370.975a26.635,26.635,0,1,1,53.271,0v19.877a3.582,3.582,0,0,1-3.578,3.578H819.691A3.582,3.582,0,0,1,816.113,390.852Z" transform="translate(-165.934 -163.66)" fill="#2f2e41"/>
    <circle id="Ellipse_80" data-name="Ellipse 80" cx="19.528" cy="19.528" r="19.528" transform="translate(650.713 191.411)" fill="#ffb7b7"/>
    <path id="Path_99" data-name="Path 99" d="M809.812,372.565a21.094,21.094,0,0,1,21.07-21.07h3.975a21.093,21.093,0,0,1,21.07,21.07v.4h-8.4l-2.865-8.024-.573,8.024h-4.342l-1.446-4.048-.289,4.048h-28.2Z" transform="translate(-165.934 -163.66)" fill="#2f2e41"/>
    <path id="Path_100" data-name="Path 100" d="M847.565,477.667l-49.721-1.892-2.78-32.529c-2.144-5.954-2.178-11.066-.1-15.194a15.208,15.208,0,0,1,8.4-7.257l10.88-13.14a14.809,14.809,0,0,1,11.5-5.359l28.267.193c.682-.41,4.815-2.51,12.966,1.023,8.841,3.833,6.788,17.144,6.766,17.278l-.02.125-.1.082-18.8,15.835Z" transform="translate(-165.934 -163.66)" fill="#3f3d56"/>
    <path id="Path_101" data-name="Path 101" d="M632.306,308.619,608.787,351.5,590.956,546.581l20.146,6.153,35.662-152.605L688.15,548.4l24.15.6L695.857,377.9l-14.37-66.249Z" fill="#2f2e41"/>
    <path id="Path_102" data-name="Path 102" d="M861.075,541.7a8,8,0,0,0-.421-12.262l9.182-26.912-14.3,3.716-6.527,24.987A8.045,8.045,0,0,0,861.075,541.7Z" transform="translate(-165.934 -163.66)" fill="#ffb7b7"/>
    <path id="Path_103" data-name="Path 103" d="M865.176,525.367,851.3,519.182l4.662-46.946L851.624,424.9l18.524-10,3.927,4.951,0,.112,2.081,59.861-.011.045Z" transform="translate(-165.934 -163.66)" fill="#3f3d56"/>
    <path id="Path_104" data-name="Path 104" d="M664.1,381.822H165.934V163.66H664.1Z" transform="translate(-165.934 -163.66)" fill="#fff"/>
    <path id="Path_105" data-name="Path 105" d="M664.1,381.822H165.934V163.66H664.1ZM170.753,377H659.277V168.479H170.753Z" transform="translate(-165.934 -163.66)" fill="#e5e5e5"/>
    <path id="Path_106" data-name="Path 106" d="M249.285,175.642l-85.529-64.063L79.4,174.766l-1.931-2.577,86.291-64.633,85.121,63.757,84.588-92.567.34-.137L419.13,44.23l1.2,2.987L335.348,81.458Z" fill="#3f3d56"/>
    <circle id="Ellipse_81" data-name="Ellipse 81" cx="9.659" cy="9.659" r="9.659" transform="translate(68.771 163.818)" fill="#6c63ff"/>
    <circle id="Ellipse_82" data-name="Ellipse 82" cx="9.659" cy="9.659" r="9.659" transform="translate(154.097 101.032)" fill="#6c63ff"/>
    <circle id="Ellipse_83" data-name="Ellipse 83" cx="9.659" cy="9.659" r="9.659" transform="translate(239.422 163.818)" fill="#6c63ff"/>
    <circle id="Ellipse_84" data-name="Ellipse 84" cx="9.659" cy="9.659" r="9.659" transform="translate(324.747 70.443)" fill="#6c63ff"/>
    <circle id="Ellipse_85" data-name="Ellipse 85" cx="9.659" cy="9.659" r="9.659" transform="translate(410.073 35.025)" fill="#6c63ff"/>
    <path id="Path_107" data-name="Path 107" d="M1033.07,736.34h-381a1,1,0,0,1,0-2h381a1,1,0,0,1,0,2Z" transform="translate(-165.934 -163.66)" fill="#cbcbcb"/>
  </g>
</svg>
