<svg id="Group_10" data-name="Group 10" xmlns="http://www.w3.org/2000/svg" width="955.956" height="639.224" viewBox="0 0 955.956 639.224">
  <rect id="Rectangle_66" data-name="Rectangle 66" width="703.576" height="450.601" transform="translate(0.3 0.399)" fill="#e6e6e6"/>
  <rect id="Rectangle_67" data-name="Rectangle 67" width="663.339" height="171.773" transform="translate(20.419 56.916)" fill="#fff"/>
  <rect id="Rectangle_68" data-name="Rectangle 68" width="140.281" height="8.053" transform="translate(185.418 81.727)" fill="#e6e6e6"/>
  <rect id="Rectangle_69" data-name="Rectangle 69" width="216.625" height="8.053" transform="translate(185.418 111.101)" fill="#6c63ff"/>
  <rect id="Rectangle_70" data-name="Rectangle 70" width="176.544" height="8.053" transform="translate(185.418 138.776)" fill="#e6e6e6"/>
  <rect id="Rectangle_71" data-name="Rectangle 71" width="103.064" height="8.053" transform="translate(185.418 166.346)" fill="#e6e6e6"/>
  <rect id="Rectangle_72" data-name="Rectangle 72" width="155.55" height="8.053" transform="translate(185.418 193.915)" fill="#e6e6e6"/>
  <rect id="Rectangle_73" data-name="Rectangle 73" width="17.177" height="17.177" transform="translate(121.48 78.864)" fill="#e6e6e6"/>
  <rect id="Rectangle_74" data-name="Rectangle 74" width="17.177" height="17.177" transform="translate(121.48 106.539)" fill="#6c63ff"/>
  <rect id="Rectangle_75" data-name="Rectangle 75" width="17.177" height="17.177" transform="translate(121.48 134.213)" fill="#e6e6e6"/>
  <rect id="Rectangle_76" data-name="Rectangle 76" width="17.177" height="17.177" transform="translate(121.48 161.888)" fill="#e6e6e6"/>
  <rect id="Rectangle_77" data-name="Rectangle 77" width="17.177" height="17.177" transform="translate(121.48 189.562)" fill="#e6e6e6"/>
  <rect id="Rectangle_78" data-name="Rectangle 78" width="57.258" height="57.258" transform="translate(533.736 117.99)" fill="#e6e6e6"/>
  <rect id="Rectangle_79" data-name="Rectangle 79" width="663.339" height="171.773" transform="translate(20.419 252.546)" fill="#fff"/>
  <rect id="Rectangle_80" data-name="Rectangle 80" width="17.177" height="17.177" transform="translate(151.064 267.812)" fill="#e6e6e6"/>
  <rect id="Rectangle_81" data-name="Rectangle 81" width="17.177" height="17.177" transform="translate(121.48 267.812)" fill="#6c63ff"/>
  <path id="Path_90" data-name="Path 90" d="M534.748,435.763a65.046,65.046,0,0,0-105-9.7l-4.186-3.658a70.594,70.594,0,0,1,113.973,10.526Z" transform="translate(-122.024 -130.388)" fill="#e6e6e6"/>
  <path id="Path_91" data-name="Path 91" d="M537.367,508.182l-4.613-3.1a65.078,65.078,0,0,0,1.994-69.316l4.784-2.832a70.637,70.637,0,0,1-2.164,75.25Z" transform="translate(-122.024 -130.388)" fill="#6c63ff"/>
  <path id="Path_92" data-name="Path 92" d="M426.138,515.926a70.589,70.589,0,0,1-.579-93.521l4.186,3.658a65.031,65.031,0,0,0,.534,86.154Z" transform="translate(-122.024 -130.388)" fill="#6c63ff"/>
  <path id="Path_93" data-name="Path 93" d="M478.738,539.44a70.709,70.709,0,0,1-52.6-23.514l4.141-3.709a65.043,65.043,0,0,0,102.476-7.138l4.613,3.1a70.554,70.554,0,0,1-58.63,31.259Z" transform="translate(-122.024 -130.388)" fill="#6c63ff"/>
  <rect id="Rectangle_82" data-name="Rectangle 82" width="57.258" height="57.258" transform="translate(533.736 305.032)" fill="#e6e6e6"/>
  <rect id="Rectangle_83" data-name="Rectangle 83" width="57.258" height="57.258" transform="translate(119.095 342.249)" fill="#e6e6e6"/>
  <rect id="Rectangle_84" data-name="Rectangle 84" width="703.576" height="29.89" fill="#6c63ff"/>
  <circle id="Ellipse_75" data-name="Ellipse 75" cx="5.54" cy="5.54" r="5.54" transform="translate(16.672 9.742)" fill="#fff"/>
  <circle id="Ellipse_76" data-name="Ellipse 76" cx="5.54" cy="5.54" r="5.54" transform="translate(37.701 9.742)" fill="#fff"/>
  <circle id="Ellipse_77" data-name="Ellipse 77" cx="5.54" cy="5.54" r="5.54" transform="translate(58.729 9.742)" fill="#fff"/>
  <path id="Path_94" data-name="Path 94" d="M817.168,623.7h14.243l6.777-54.94H817.165Z" fill="#ffb8b8"/>
  <path id="Path_95" data-name="Path 95" d="M935.558,749.442H963.61a17.877,17.877,0,0,1,17.876,17.875v.582l-45.927,0Z" transform="translate(-122.024 -130.388)" fill="#2f2e41"/>
  <path id="Path_96" data-name="Path 96" d="M781.694,569.766l10.511,9.613,42.079-35.968-15.513-14.187Z" fill="#ffb8b8"/>
  <path id="Path_97" data-name="Path 97" d="M904.175,694.271l20.7,18.93h0A17.877,17.877,0,0,1,926,738.457l-.392.429-33.891-30.995Z" transform="translate(-122.024 -130.388)" fill="#2f2e41"/>
  <path id="Path_98" data-name="Path 98" d="M839.555,430.772l-4.037,80.739,10.093,87.8-30.278,4.037L796.158,492.336,790.1,416.642Z" fill="#2f2e41"/>
  <path id="Path_99" data-name="Path 99" d="M1009.01,531.892s12.111,79.73-13.12,105.971-59.545,72.666-59.545,72.666L912.126,680.25l61.564-65.6-12.111-44.407L912.126,547.03l8.074-55.508,72.666-1.009Z" transform="translate(-122.024 -130.388)" fill="#2f2e41"/>
  <circle id="Ellipse_78" data-name="Ellipse 78" cx="24.717" cy="24.717" r="24.717" transform="translate(806.698 167.378)" fill="#ffb8b8"/>
  <path id="Path_100" data-name="Path 100" d="M851.917,227.224l3.786,5.736L865.8,261.219l-8.074,110.007-47.435,1.01L804.232,246.08l12.685-15.856Z" fill="#ccc"/>
  <path id="Path_101" data-name="Path 101" d="M907.08,379.5l-8.074-1.009s-2.018,1.009-3.028,8.074-13.12,69.638-13.12,69.638l16.148,76.7,18.166-24.222-11.1-42.388,11.1-42.388Z" transform="translate(-122.024 -130.388)" fill="#2f2e41"/>
  <path id="Path_102" data-name="Path 102" d="M888,248.1h6.055l15.139,81.748L895.064,393.43l-14.13-23.213,4.037-25.231-2.018-22.2-7.065-13.121Z" fill="#2f2e41"/>
  <path id="Path_103" data-name="Path 103" d="M968.045,322.482l-4.494-1.124s-3.371-19.1-11.235-16.853-28.088,4.494-28.088-4.494,19.1-16.853,30.335-15.729,25.584,4.851,29.211,21.347c5.815,26.444-12,33.123-12,33.123l.3-.963a15,15,0,0,0-4.029-15.308Z" transform="translate(-122.024 -130.388)" fill="#2f2e41"/>
  <path id="Path_104" data-name="Path 104" d="M900.015,378.486l32.3-13.12,7.569-5.551,22.708,100.42,15.139-45.416-4.542-58.032,41.884,21.7-14.129,68.629-2.018,26.24,6.055,21.194s21.194,15.139,14.129,31.287-15.139,17.157-15.139,17.157-34.314-32.3-36.333-40.37-5.046-22.2-5.046-22.2S945.431,545.011,925.246,544s-20.185-22.2-20.185-22.2l5.046-22.2,8.074-23.213-4.037-38.351Z" transform="translate(-122.024 -130.388)" fill="#2f2e41"/>
  <path id="Path_105" data-name="Path 105" d="M1076.98,769.612h-268a1,1,0,0,1,0-2h268a1,1,0,0,1,0,2Z" transform="translate(-122.024 -130.388)" fill="#ccc"/>
</svg>
