<svg xmlns="http://www.w3.org/2000/svg" width="494.896" height="727.778" viewBox="0 0 494.896 727.778">
  <g id="Group_9" data-name="Group 9" transform="translate(0 0)">
    <path id="Path_67" data-name="Path 67" d="M707.582,392.43s2.4,32.439,2.4,33.641-16.82,84.1-16.82,84.1-24.029,45.655,0,44.454,16.82-43.252,16.82-43.252l25.231-69.684L724.4,392.43Z" transform="translate(-352.552 -86.111)" fill="#ffb8b8"/>
    <path id="Path_68" data-name="Path 68" d="M473.975,669.159l3.6,26.432-25.231,2.4,3.605-32.44Z" fill="#ffb8b8"/>
    <path id="Path_69" data-name="Path 69" d="M394.679,669.159l-3.6,26.432,25.231,2.4-3.6-32.44Z" fill="#ffb8b8"/>
    <path id="Path_70" data-name="Path 70" d="M719.6,507.77l-6.007,8.41s-3.6,36.044,0,48.058S724.4,631.52,724.4,635.124s1.2,6.007,0,7.209,0,13.216,0,13.216v6.007l15.619,88.908s-9.612,10.813-2.4,10.813,33.641,0,32.439-12.015l-2.4-1.2s-3.6-79.3-2.4-82.9,2.4-26.432,2.4-26.432l10.813-73.289,20.425,70.886L803.7,742.054s-4.806,12.015,0,14.417,25.23,10.813,26.432-1.2,7.209-116.541,7.209-121.347-2.4-79.3-2.4-79.3,1.2-12.015,2.4-14.417-1.2-4.806,0-8.41-2.4-15.619-2.4-15.619l-54.066-14.417Z" transform="translate(-352.552 -86.111)" fill="#2f2e41"/>
    <path id="Path_71" data-name="Path 71" d="M761.648,776.9s6.007-6.007-2.4-6.007a39.108,39.108,0,0,0-15.619,3.6l-6.007,21.626s-24.63,19.824,3,17.421,31.839-3,33.04-5.407c.843-1.686-.681-19.352-1.665-29.736a2.79,2.79,0,0,0-4.5-1.956,4.724,4.724,0,0,1-5.854.454Z" transform="translate(-352.552 -86.111)" fill="#2f2e41"/>
    <path id="Path_72" data-name="Path 72" d="M813.311,776.9s-6.007-6.007,2.4-6.007a39.108,39.108,0,0,1,15.619,3.6l6.007,21.626s24.63,19.824-3,17.421-35.443-3-36.644-5.407c-.837-1.674,2.407-19.088,4.453-29.5a3.438,3.438,0,0,1,5.473-2.063,4.691,4.691,0,0,0,5.694.327Z" transform="translate(-352.552 -86.111)" fill="#2f2e41"/>
    <path id="Path_73" data-name="Path 73" d="M724.4,289.105s4.806,24.029,4.806,27.634,20.425,14.418,20.425,14.418l22.827-28.835S758.044,281.9,758.044,277.09Z" transform="translate(-352.552 -86.111)" fill="#ffb8b8"/>
    <path id="Path_74" data-name="Path 74" d="M742.425,320.343s-10.472-2.787-13.646-7.4c0,0-33.211,32.632-33.211,38.639L722,398.438s0,16.82,2.4,18.022,0,0,0,4.806-7.209,36.044-4.806,40.849,4.806,1.2,2.4,8.41-8.41,45.655-8.41,45.655,21.626-7.209,52.864,4.806,68.483-4.806,68.483-4.806-9.612-21.626-7.209-28.835-6.007-20.425-6.007-20.425l-6.007-110.534s8.41-49.26,2.4-51.663L806.1,299.918l-38.475-4.729S758.044,319.141,742.425,320.343Z" transform="translate(-352.552 -86.111)" fill="#3f3d56"/>
    <path id="Path_75" data-name="Path 75" d="M707.582,343.171l-12.015,8.41s-6.007,18.022,0,26.432,8.41,20.425,8.41,20.425l24.029-2.4Z" transform="translate(-352.552 -86.111)" fill="#3f3d56"/>
    <path id="Path_76" data-name="Path 76" d="M711.443,259.058V149.513a63.4,63.4,0,0,0-63.4-63.4H415.954a63.4,63.4,0,0,0-63.4,63.4V750.487a63.4,63.4,0,0,0,63.4,63.4H648.041a63.4,63.4,0,0,0,63.4-63.4V259.058Z" transform="translate(-352.552 -86.111)" fill="#e6e6e6"/>
    <path id="Path_77" data-name="Path 77" d="M650.6,102.606H620.3a22.495,22.495,0,0,1-20.827,30.99H466.517a22.495,22.495,0,0,1-20.827-30.991H417.395a47.348,47.348,0,0,0-47.348,47.348V750.046a47.348,47.348,0,0,0,47.348,47.348H650.6a47.348,47.348,0,0,0,47.348-47.348h0V149.954A47.348,47.348,0,0,0,650.6,102.606Z" transform="translate(-352.552 -86.111)" fill="#fff"/>
    <path id="Path_78" data-name="Path 78" d="M681.394,370.822H393.126a5.345,5.345,0,0,1-5.338-5.338V293.977a5.345,5.345,0,0,1,5.338-5.338H681.394a5.345,5.345,0,0,1,5.338,5.338v71.507a5.345,5.345,0,0,1-5.338,5.338ZM393.126,290.774a3.206,3.206,0,0,0-3.2,3.2v71.507a3.206,3.206,0,0,0,3.2,3.2H681.394a3.206,3.206,0,0,0,3.2-3.2V293.977a3.206,3.206,0,0,0-3.2-3.2Z" transform="translate(-352.552 -86.111)" fill="#e6e6e6"/>
    <circle id="Ellipse_12" data-name="Ellipse 12" cx="21.745" cy="21.745" r="21.745" transform="translate(63.62 219.131)" fill="#e6e6e6"/>
    <path id="Path_79" data-name="Path 79" d="M488.139,312.49a3.624,3.624,0,1,0,0,7.248H658.995a3.624,3.624,0,0,0,0-7.248Z" transform="translate(-352.552 -86.111)" fill="#e6e6e6"/>
    <path id="Path_80" data-name="Path 80" d="M488.139,334.235a3.624,3.624,0,0,0,0,7.248h73.52a3.624,3.624,0,0,0,0-7.248Z" transform="translate(-352.552 -86.111)" fill="#e6e6e6"/>
    <path id="Path_81" data-name="Path 81" d="M681.394,602.822H393.126a5.345,5.345,0,0,1-5.338-5.338V525.977a5.345,5.345,0,0,1,5.338-5.338H681.394a5.345,5.345,0,0,1,5.338,5.338v71.507A5.344,5.344,0,0,1,681.394,602.822ZM393.126,522.774a3.206,3.206,0,0,0-3.2,3.2v71.507a3.207,3.207,0,0,0,3.2,3.2H681.394a3.206,3.206,0,0,0,3.2-3.2V525.977a3.206,3.206,0,0,0-3.2-3.2Z" transform="translate(-352.552 -86.111)" fill="#e6e6e6"/>
    <circle id="Ellipse_13" data-name="Ellipse 13" cx="21.745" cy="21.745" r="21.745" transform="translate(63.62 451.131)" fill="#e6e6e6"/>
    <path id="Path_82" data-name="Path 82" d="M488.139,544.49a3.624,3.624,0,0,0,0,7.249H658.995a3.624,3.624,0,0,0,0-7.248Z" transform="translate(-352.552 -86.111)" fill="#e6e6e6"/>
    <path id="Path_83" data-name="Path 83" d="M488.139,566.235a3.624,3.624,0,1,0,0,7.248h73.52a3.624,3.624,0,0,0,0-7.248Z" transform="translate(-352.552 -86.111)" fill="#e6e6e6"/>
    <path id="Path_84" data-name="Path 84" d="M684.728,416.977v71.51a5.343,5.343,0,0,1-5.33,5.34H531.448v-80.8h151.52a5.294,5.294,0,0,1,1.76,3.95Z" transform="translate(-352.552 -86.111)" fill="#6c63ff"/>
    <rect id="Rectangle_66" data-name="Rectangle 66" width="2" height="80.05" transform="translate(254.535 325.526)" fill="#fff"/>
    <path id="Path_85" data-name="Path 85" d="M682.968,413.027a5.24,5.24,0,0,0-3.57-1.39H391.128a5.352,5.352,0,0,0-5.34,5.34v71.51a5.352,5.352,0,0,0,5.34,5.34H679.4a5.343,5.343,0,0,0,5.33-5.34v-71.51A5.294,5.294,0,0,0,682.968,413.027Zm-.37,75.46a3.209,3.209,0,0,1-3.2,3.2H391.128a3.2,3.2,0,0,1-3.2-3.2v-71.51a3.2,3.2,0,0,1,3.2-3.2H679.4a3.2,3.2,0,0,1,3.2,3.2Z" transform="translate(-352.552 -86.111)" fill="#e6e6e6"/>
    <path id="Path_86" data-name="Path 86" d="M483,449.487h-68.86a3.625,3.625,0,0,0,0,7.25H483a3.625,3.625,0,1,0,0-7.25Z" transform="translate(-352.552 -86.111)" fill="#e6e6e6"/>
    <path id="Path_87" data-name="Path 87" d="M565.863,444.747a6.6,6.6,0,0,0-8.89.666,6.783,6.783,0,0,0,.337,9.383l8.431,8.431a1,1,0,0,0,1.414,0l8.431-8.431a6.783,6.783,0,0,0,.337-9.383,6.6,6.6,0,0,0-8.89-.666.953.953,0,0,1-1.169,0Z" transform="translate(-352.552 -86.111)" fill="#fff"/>
    <path id="Path_88" data-name="Path 88" d="M653.667,463.927H641.229a1,1,0,0,1-.97-.758l-3.5-14a1,1,0,0,1,.97-1.243h19.438a1,1,0,0,1,.97,1.243l-3.5,14A1,1,0,0,1,653.667,463.927Z" transform="translate(-352.552 -86.111)" fill="#fff"/>
    <path id="Path_89" data-name="Path 89" d="M647.448,452.427a.5.5,0,0,0-.5.5v7a.5.5,0,0,0,1,0v-7A.5.5,0,0,0,647.448,452.427Z" transform="translate(-352.552 -86.111)" fill="#6c63ff"/>
    <path id="Path_90" data-name="Path 90" d="M651.023,459.793a.5.5,0,0,0,.964.269l1.886-6.741a.5.5,0,0,0-.964-.269Z" transform="translate(-352.552 -86.111)" fill="#6c63ff"/>
    <path id="Path_91" data-name="Path 91" d="M641.505,452.686a.492.492,0,0,0-.135.019.5.5,0,0,0-.348.617l1.886,6.741a.5.5,0,0,0,.964-.27l-1.886-6.741A.5.5,0,0,0,641.505,452.686Z" transform="translate(-352.552 -86.111)" fill="#6c63ff"/>
    <path id="Path_92" data-name="Path 92" d="M656.448,445.927h-7v-1a2,2,0,0,0-4,0v1h-7a.5.5,0,0,0,0,1h18a.5.5,0,0,0,0-1Z" transform="translate(-352.552 -86.111)" fill="#fff"/>
    <circle id="Ellipse_14" data-name="Ellipse 14" cx="31.238" cy="31.238" r="31.238" transform="translate(351.426 148.928)" fill="#ffb8b8"/>
    <path id="Path_93" data-name="Path 93" d="M711.366,233.264l-5.419-2.169s11.33-12.473,27.093-11.389l-4.433-4.881s10.837-4.339,20.689,7.05c5.179,5.987,11.171,13.024,14.907,20.951h5.8l-2.422,5.333,8.477,5.333-8.7-.958a29.51,29.51,0,0,1-.823,13.811l.233,4.215s-10.085-15.6-10.085-17.773v5.423s-5.419-4.881-5.419-8.135l-2.956,3.8-1.478-5.966-18.226,5.966,2.956-4.881-11.33,1.627,4.433-5.966s-12.808,7.05-13.3,13.016-6.9,13.558-6.9,13.558l-2.956-5.423S697.081,241.4,711.366,233.264Z" transform="translate(-352.552 -86.111)" fill="#2f2e41"/>
    <path id="Path_94" data-name="Path 94" d="M796.49,353.984s-6.957,17.891-5.5,35.592a18.76,18.76,0,0,0,3.1,8.862h0L708.85,438.9s-38.513,3.987-28.9,20.808S724.4,451.3,724.4,451.3s91.311-13.216,98.519-26.432,12.015-68.483,12.015-68.483Z" transform="translate(-352.552 -86.111)" fill="#ffb8b8"/>
    <path id="Path_95" data-name="Path 95" d="M800.095,304.724h18.022s13.216,2.4,16.82,26.432,7.209,30.036,3.6,30.036-46.857-1.2-46.857-2.4S800.095,304.724,800.095,304.724Z" transform="translate(-352.552 -86.111)" fill="#3f3d56"/>
  </g>
</svg>
