<svg xmlns="http://www.w3.org/2000/svg" width="784.398" height="733.607" viewBox="0 0 784.398 733.607">
  <g id="Group_9" data-name="Group 9" transform="translate(0 0)">
    <path id="Path_67" data-name="Path 67" d="M832.546,604.414s97.041,5.017,74.438,35.565-81.995-17.92-81.995-17.92Z" transform="translate(-207.801 -83.197)" fill="#ffb8b8"/>
    <path id="Path_68" data-name="Path 68" d="M653.717,313.448l19.752,4.938s11.522,34.566,19.752,65.84,24.69,125.1,24.69,125.1l127.61,89.433L830.3,632.8l-170-67L622.443,417.147Z" transform="translate(-207.801 -83.197)" fill="#575a89"/>
    <path id="Path_69" data-name="Path 69" d="M464.5,291.607l-7.362,154.165L472.5,491.607l-45-33Z" opacity="0.2"/>
    <path id="Path_70" data-name="Path 70" d="M698.982,648.411s21.4,57.61,24.69,97.114,6.584,70.778,6.584,70.778H629.85L610.1,786.676V816.3H493.231s-32.92-106.99-19.752-120.158,138.265-69.132,138.265-69.132Z" transform="translate(-207.801 -83.197)" fill="#2f2e41"/>
    <rect id="Rectangle_66" data-name="Rectangle 66" width="581" height="2" transform="translate(101.5 731.607)" fill="#3f3d56"/>
    <circle id="Ellipse_12" data-name="Ellipse 12" cx="62.548" cy="62.548" r="62.548" transform="translate(302.713 42.607)" fill="#ffb8b8"/>
    <path id="Path_71" data-name="Path 71" d="M525.328,214.688l-4.938,72.424,62.548,83.946,31.275-79.009s-27.982-18.106-11.522-55.964Z" transform="translate(-207.801 -83.197)" fill="#ffb8b8"/>
    <path id="Path_72" data-name="Path 72" d="M708.031,662.4c0,14.82-41.15,37.86-41.15,37.86v8.23l-16.46,8.23-36.21-72.42-9.87,79s-72.43,11.53-95.47,0-34.57-6.58-67.49-18.1,13.17-166.25,13.17-166.25l-32.92-238.67,71.92-35.96,3.79-1.9,9.89-1.82,15.16-2.8,50.67,34.25,4.08,21.4,2.51,13.17,13.16-14.82,9.94-32.69,70.72,39.28L653.721,476.4S708.031,647.59,708.031,662.4Z" transform="translate(-207.801 -83.197)" fill="#575a89"/>
    <path id="Path_73" data-name="Path 73" d="M466.072,713.428s75.716,60.9,39.5,72.424S449.612,723.3,449.612,723.3Z" transform="translate(-207.801 -83.197)" fill="#ffb8b8"/>
    <path id="Path_74" data-name="Path 74" d="M438.09,303.572l-16.46-3.292s-24.69,13.168-26.336,39.5S372.25,550.473,372.25,550.473l69.132,186,55.964-21.4L443.028,540.6l41.15-151.433Z" transform="translate(-207.801 -83.197)" fill="#575a89"/>
    <circle id="Ellipse_13" data-name="Ellipse 13" cx="6" cy="6" r="6" transform="translate(366.5 258.607)" fill="#2f2e41"/>
    <circle id="Ellipse_14" data-name="Ellipse 14" cx="6" cy="6" r="6" transform="translate(366.5 297.607)" fill="#2f2e41"/>
    <circle id="Ellipse_15" data-name="Ellipse 15" cx="6" cy="6" r="6" transform="translate(400.5 554.607)" fill="#2f2e41"/>
    <path id="Path_75" data-name="Path 75" d="M520.254,124.274l-11.562-4.629s24.175-26.617,57.811-24.3l-9.46-10.415s23.125-9.258,44.147,15.044c11.051,12.775,23.837,27.791,31.808,44.707h12.383l-5.168,11.379L658.3,167.437l-18.566-2.044a63.584,63.584,0,0,1,.5,18.875,24.421,24.421,0,0,1-8.943,15.976h0s-14.339-29.681-14.339-34.31v11.572s-11.562-10.415-11.562-17.358l-6.307,8.1H557.043l6.307-10.415L539.174,161.3l9.46-12.73L511.2,201.14S489.771,141.632,520.254,124.274Z" transform="translate(-207.801 -83.197)" fill="#2f2e41"/>
    <circle id="Ellipse_16" data-name="Ellipse 16" cx="100" cy="100" r="100" transform="translate(584.398 283.545)" fill="#3f3d56"/>
    <circle id="Ellipse_17" data-name="Ellipse 17" cx="86" cy="86" r="86" transform="translate(598.398 297.545)" opacity="0.1"/>
    <path id="Path_76" data-name="Path 76" d="M888.078,517.49V504.973c-6.327-.123-12.873-2.355-16.691-5.453l2.618-8.3a26.682,26.682,0,0,0,15.709,5.328c7.746,0,12.982-5.081,12.982-12.145,0-6.816-4.255-11.03-12.328-14.748-11.128-4.957-18-10.658-18-21.44,0-10.287,6.437-18.094,16.473-19.953V415.742h6.764v12.021a26.543,26.543,0,0,1,14.182,4.337l-2.728,8.18a24.106,24.106,0,0,0-13.745-4.214c-8.4,0-11.564,5.7-11.564,10.658,0,6.444,4.036,9.666,13.528,14.129,11.236,5.2,16.909,11.649,16.909,22.679,0,9.79-6,18.962-17.237,21.068v12.89Z" transform="translate(-207.801 -83.197)" fill="#6c63ff"/>
    <path id="Path_77" data-name="Path 77" d="M250.005,504.87,290,629.8l-32-130Z" opacity="0.2"/>
    <path id="Path_78" data-name="Path 78" d="M253.894,344H228.508a4.178,4.178,0,0,1-4.173-4.173V303.333a4.178,4.178,0,0,1,4.173-4.173h25.387a4.178,4.178,0,0,1,4.173,4.173v36.493A4.178,4.178,0,0,1,253.894,344Zm-25.387-42.84a2.176,2.176,0,0,0-2.173,2.173v36.493A2.176,2.176,0,0,0,228.508,342h25.387a2.176,2.176,0,0,0,2.173-2.173V303.333a2.176,2.176,0,0,0-2.173-2.173Z" transform="translate(-207.801 -83.197)" fill="#3f3d56"/>
    <path id="Path_79" data-name="Path 79" d="M300.264,344H277.338a5.41,5.41,0,0,1-5.4-5.4V264.9a5.41,5.41,0,0,1,5.4-5.4h22.926a5.41,5.41,0,0,1,5.4,5.4v73.7A5.41,5.41,0,0,1,300.264,344Zm-22.926-82.507a3.408,3.408,0,0,0-3.4,3.4v73.7a3.408,3.408,0,0,0,3.4,3.4h22.926a3.408,3.408,0,0,0,3.4-3.4V264.9a3.408,3.408,0,0,0-3.4-3.4Z" transform="translate(-207.801 -83.197)" fill="#3f3d56"/>
    <path id="Path_80" data-name="Path 80" d="M346.979,344H325.824a6.3,6.3,0,0,1-6.289-6.289V229.289A6.3,6.3,0,0,1,325.824,223h21.155a6.3,6.3,0,0,1,6.289,6.289V337.711A6.3,6.3,0,0,1,346.979,344ZM325.824,225a4.294,4.294,0,0,0-4.289,4.289V337.711A4.294,4.294,0,0,0,325.824,342h21.155a4.294,4.294,0,0,0,4.289-4.289V229.289A4.294,4.294,0,0,0,346.979,225Z" transform="translate(-207.801 -83.197)" fill="#3f3d56"/>
    <rect id="Rectangle_67" data-name="Rectangle 67" width="19.04" height="30.94" transform="translate(23.88 222.913)" fill="#6c63ff"/>
    <rect id="Rectangle_68" data-name="Rectangle 68" width="19.04" height="70.21" transform="translate(71.48 183.643)" fill="#6c63ff"/>
    <rect id="Rectangle_69" data-name="Rectangle 69" width="19.04" height="106.703" transform="translate(119.08 147.15)" fill="#6c63ff"/>
    <path id="Path_81" data-name="Path 81" d="M930.8,229h-133a1,1,0,0,1-1-1V93a1,1,0,0,1,2,0V227h132a1,1,0,0,1,0,2Z" transform="translate(-207.801 -83.197)" fill="#3f3d56"/>
    <path id="Path_82" data-name="Path 82" d="M366.8,358h-158a1,1,0,0,1-1-1V200a1,1,0,0,1,2,0V356h157a1,1,0,0,1,0,2Z" transform="translate(-207.801 -83.197)" fill="#3f3d56"/>
    <path id="Path_83" data-name="Path 83" d="M843.7,216.467H818.313a4.178,4.178,0,0,1-4.174-4.173V175.8a4.178,4.178,0,0,1,4.174-4.173H843.7a4.178,4.178,0,0,1,4.173,4.173v36.493a4.178,4.178,0,0,1-4.172,4.173Zm-25.387-42.84a2.176,2.176,0,0,0-2.174,2.173v36.494a2.176,2.176,0,0,0,2.174,2.173H843.7a2.176,2.176,0,0,0,2.173-2.173V175.8a2.176,2.176,0,0,0-2.173-2.173Z" transform="translate(-207.801 -83.197)" fill="#3f3d56"/>
    <path id="Path_84" data-name="Path 84" d="M895.689,216.467H872.323a5.19,5.19,0,0,1-5.184-5.184v-66.1A5.189,5.189,0,0,1,872.323,140h23.366a5.189,5.189,0,0,1,5.184,5.184v66.1a5.19,5.19,0,0,1-5.184,5.184ZM872.323,142a3.187,3.187,0,0,0-3.184,3.184v66.1a3.187,3.187,0,0,0,3.184,3.184h23.366a3.187,3.187,0,0,0,3.184-3.184v-66.1A3.187,3.187,0,0,0,895.689,142Z" transform="translate(-207.801 -83.197)" fill="#3f3d56"/>
    <rect id="Rectangle_70" data-name="Rectangle 70" width="19.04" height="30.94" transform="translate(613.228 95.727)" fill="#6c63ff"/>
    <rect id="Rectangle_71" data-name="Rectangle 71" width="19.04" height="59.864" transform="translate(666.685 65.105)" fill="#6c63ff"/>
    <circle id="Ellipse_18" data-name="Ellipse 18" cx="9" cy="9" r="9" transform="translate(614 59.803)" fill="#6c63ff"/>
    <circle id="Ellipse_19" data-name="Ellipse 19" cx="9" cy="9" r="9" transform="translate(667 25.803)" fill="#6c63ff"/>
  </g>
</svg>
