<svg xmlns="http://www.w3.org/2000/svg" width="724.346" height="519" viewBox="0 0 724.346 519">
  <g id="Group_9" data-name="Group 9" transform="translate(0)">
    <path id="Path_67" data-name="Path 67" d="M961.173,709.5h-301a1,1,0,0,1,0-2h301a1,1,0,0,1,0,2Z" transform="translate(-237.827 -190.5)" fill="#3f3d56"/>
    <path id="Path_68" data-name="Path 68" d="M535.418,507.548H523.159l-5.833-47.288h18.1Z" fill="#ffb8b8"/>
    <path id="Path_69" data-name="Path 69" d="M514.4,504.045h23.644v14.887h-38.53A14.887,14.887,0,0,1,514.4,504.045Z" fill="#2f2e41"/>
    <path id="Path_70" data-name="Path 70" d="M624.374,493.661l-11.152,5.093-24.953-40.589,16.458-7.517Z" fill="#ffb8b8"/>
    <path id="Path_71" data-name="Path 71" d="M844.325,687.214h23.644V702.1H829.438A14.887,14.887,0,0,1,844.325,687.214Z" transform="translate(-449.718 224.896) rotate(-24.548)" fill="#2f2e41"/>
    <path id="Path_72" data-name="Path 72" d="M826.5,538.6a10.056,10.056,0,0,0,.8-15.4l14.412-32.7-18.309,3.1-10.879,30.577A10.11,10.11,0,0,0,826.5,538.605Z" transform="translate(-237.827 -190.5)" fill="#ffb8b8"/>
    <path id="Path_73" data-name="Path 73" d="M772.464,685.579H760.752a4.517,4.517,0,0,1-4.488-4.174L743.877,510.847a4.5,4.5,0,0,1,4.925-4.8l73.735,7.193a4.5,4.5,0,0,1,4.062,4.394l1.419,75.235a3.494,3.494,0,0,0,.234,1.193l27.785,72.053a4.5,4.5,0,0,1-2.643,5.841l-11.868,4.373a4.5,4.5,0,0,1-5.557-2.164l-34.133-66.369a4.471,4.471,0,0,1-.4-1.143L795.6,578.555a3.5,3.5,0,0,0-6.9.313L776.935,681.591a4.5,4.5,0,0,1-4.471,3.987Z" transform="translate(-237.827 -190.5)" fill="#2f2e41"/>
    <circle id="Ellipse_12" data-name="Ellipse 12" cx="24.561" cy="24.561" r="24.561" transform="translate(515.908 137.865)" fill="#ffb8b8"/>
    <path id="Path_74" data-name="Path 74" d="M748.551,511.832c3.144,2.169,38.567,25.512,78.942,6.945-.523-4.509-5.562-49.779-1.161-83.152,2.088-15.834-4.218-30.5-17.3-40.246a49.733,49.733,0,0,0-50.02-5.4h0q-.994.445-2,.927Z" transform="translate(-237.827 -190.5)" fill="#6c63ff"/>
    <path id="Path_75" data-name="Path 75" d="M827.876,518.406a4.486,4.486,0,0,1-3.312-1.46l-5.372-5.861a4.523,4.523,0,0,1-1-4.315l12.3-41.647L811.776,425.8a8.309,8.309,0,0,1,14.818-7.512L851.9,459.361a11.451,11.451,0,0,1,.69,10.73l-20.61,45.665a4.489,4.489,0,0,1-3.39,2.592,4.569,4.569,0,0,1-.717.058Z" transform="translate(-237.827 -190.5)" fill="#6c63ff"/>
    <path id="Path_76" data-name="Path 76" d="M766.727,513.079h-9.812l17.128-80.6.988.129-3.81,76.2a4.5,4.5,0,0,1-4.494,4.274Z" transform="translate(-237.827 -190.5)" opacity="0.2"/>
    <path id="Path_77" data-name="Path 77" d="M757.648,533.119a10.056,10.056,0,0,0-2.413-15.229l7.308-34.979-17.265,6.837-4.293,32.169a10.11,10.11,0,0,0,16.664,11.2Z" transform="translate(-237.827 -190.5)" fill="#ffb8b8"/>
    <path id="Path_78" data-name="Path 78" d="M756.658,513.18a4.686,4.686,0,0,1-.508-.028l-10.465-1.163a4.515,4.515,0,0,1-4-4.658l4.33-104.782a13.527,13.527,0,0,1,26.735-2.315l2.789,12.83-.014.091L761.1,509.346A4.485,4.485,0,0,1,756.658,513.18Z" transform="translate(-237.827 -190.5)" fill="#6c63ff"/>
    <path id="Path_79" data-name="Path 79" d="M798.532,374.579c-2.547.437-4.643-3.108-4.96-5.6s.592-4.881.691-7.358-1.069-5.488-3.642-6.223c-2.7-.77-5.2,1.394-7.959,1.133-3.848-.363-5.78-4.866-6.246-8.509s-.832-7.957-4.165-10.034-7.432-.564-11.249-.5c-6.452.109-13.019-4.811-14.527-10.882a3.659,3.659,0,0,0,4.174-1.672,3.7,3.7,0,0,0-1.114-4.378l7.313,3.581c-1-2.034.51-4.351,2.588-5.121s4.495-.424,6.788-.068c11.45,1.779,24.713.9,32.308,9.633,5.261,6.047,9.591,17.554,9,25S798.532,374.579,798.532,374.579Z" transform="translate(-237.827 -190.5)" fill="#2f2e41"/>
    <path id="Path_80" data-name="Path 80" d="M519.827,651.5h-263a7.008,7.008,0,0,1-7-7l-12-446.973a7.013,7.013,0,0,1,7-7.027h263a7.008,7.008,0,0,1,7,7L517,278.473l-2,.054-2.175-81a5.012,5.012,0,0,0-5-5.027h-263a5.006,5.006,0,0,0-5,5l12,446.973a5.012,5.012,0,0,0,5,5.027h263a5.006,5.006,0,0,0,5-5l-2.335-86.973,2-.054,2.336,87a7.013,7.013,0,0,1-7,7.027Z" transform="translate(-237.827 -190.5)" fill="#ccc"/>
    <rect id="Rectangle_66" data-name="Rectangle 66" width="2" height="38.4" transform="matrix(1, -0.027, 0.027, 1, 280.398, 208.025)" fill="#ccc"/>
    <path id="Path_81" data-name="Path 81" d="M496.226,612.109H278.367a5.977,5.977,0,0,1-5.97-5.97l-9.94-370.251a5.982,5.982,0,0,1,5.97-6H486.286a5.977,5.977,0,0,1,5.97,5.97l1.8,42.6-2,.084-1.8-42.639a3.985,3.985,0,0,0-3.971-4.012H268.427a3.975,3.975,0,0,0-3.97,3.97l9.94,370.251a3.981,3.981,0,0,0,3.971,4H496.226a3.975,3.975,0,0,0,3.97-3.97l-1.287-48.613,2-.053,1.288,48.639a5.982,5.982,0,0,1-5.97,6Z" transform="translate(-237.827 -190.5)" fill="#ccc"/>
    <rect id="Rectangle_67" data-name="Rectangle 67" width="2" height="38.013" transform="translate(256.899 209.027) rotate(-1.516)" fill="#ccc"/>
    <path id="Path_82" data-name="Path 82" d="M554.2,399.5h-255a7.008,7.008,0,0,1-7-6.942l-4-108.058a7.008,7.008,0,0,1,7-7h255a7.008,7.008,0,0,1,7,6.942l4,108.058a7.008,7.008,0,0,1-7,7Zm-264-115.053,4,108.053a5.006,5.006,0,0,0,5,5h255a5.006,5.006,0,0,0,5-4.947l-4-108.053a5.006,5.006,0,0,0-5-5h-255a5.006,5.006,0,0,0-5,4.947Z" transform="translate(-237.827 -190.5)" fill="#3f3d56"/>
    <path id="Path_83" data-name="Path 83" d="M602.2,558.5h-255a7.008,7.008,0,0,1-7-6.942l-4-108.058a7.008,7.008,0,0,1,7-7h255a7.008,7.008,0,0,1,7,6.942l4,108.058a7.008,7.008,0,0,1-7,7Zm-264-115.053,4,108.053a5.006,5.006,0,0,0,5,5h255a5.006,5.006,0,0,0,5-4.947l-4-108.053a5.006,5.006,0,0,0-5-5h-255a5.006,5.006,0,0,0-5,4.947Z" transform="translate(-237.827 -190.5)" fill="#3f3d56"/>
    <path id="Path_84" data-name="Path 84" d="M407.7,460a6.5,6.5,0,0,0,0,13h130a6.5,6.5,0,1,0,0-13Z" transform="translate(-237.827 -190.5)" fill="#6c63ff"/>
    <path id="Path_85" data-name="Path 85" d="M407.7,491a6.5,6.5,0,0,0,0,13h130a6.5,6.5,0,1,0,0-13Z" transform="translate(-237.827 -190.5)" fill="#6c63ff"/>
    <path id="Path_86" data-name="Path 86" d="M407.7,522a6.5,6.5,0,0,0,0,13h130a6.5,6.5,0,0,0,0-13Z" transform="translate(-237.827 -190.5)" fill="#6c63ff"/>
    <path id="Path_87" data-name="Path 87" d="M359.7,301a6.5,6.5,0,0,0,0,13h130a6.5,6.5,0,1,0,0-13Z" transform="translate(-237.827 -190.5)" fill="#6c63ff"/>
    <path id="Path_88" data-name="Path 88" d="M359.7,332a6.5,6.5,0,0,0,0,13h130a6.5,6.5,0,1,0,0-13Z" transform="translate(-237.827 -190.5)" fill="#6c63ff"/>
    <path id="Path_89" data-name="Path 89" d="M359.7,363a6.5,6.5,0,0,0,0,13h130a6.5,6.5,0,1,0,0-13Z" transform="translate(-237.827 -190.5)" fill="#6c63ff"/>
    <circle id="Ellipse_13" data-name="Ellipse 13" cx="10" cy="10" r="10" transform="translate(130.37 10)" fill="#e6e6e6"/>
  </g>
</svg>
