<svg xmlns="http://www.w3.org/2000/svg" width="581.518" height="582.712" viewBox="0 0 581.518 582.712">
  <g id="Layer_2" data-name="Layer 2" transform="translate(0.379)">
    <g id="Layer_1" data-name="Layer 1" transform="translate(0.392)">
      <path id="Path_67" data-name="Path 67" d="M452.159,146.034c58.355,51.071,122.219,104,128.442,163.007,6.386,59.158-45.149,124.392-103.526,160.982s-123.618,44.523-202.087,57.449c-78.307,13.073-169.7,31.288-222.592-5.3S-15.018,394.2,17.986,335.836,131.6,252.219,184.536,200.994C237.47,149.93,262.689,73.023,301.769,59.316c39.08-13.854,92.014,35.655,150.391,86.718" transform="translate(-0.392 -15.007)" fill="#f2f2f2"/>
      <rect id="Rectangle_66" data-name="Rectangle 66" width="177.296" height="134.239" transform="translate(356.101 23.296)" fill="#d7e0ff"/>
      <rect id="Rectangle_67" data-name="Rectangle 67" width="51.918" height="93.082" transform="translate(451.819 48.537)" fill="#eaf0ff"/>
      <path id="Path_68" data-name="Path 68" d="M575.312,86.043a21.411,21.411,0,1,1-21.406-21.4,21.411,21.411,0,0,1,21.406,21.4" transform="translate(-140.587 -17.031)" fill="#fb5d64"/>
      <path id="Path_69" data-name="Path 69" d="M690.038,385.264a52.374,52.374,0,1,1-52.374-52.374,52.374,52.374,0,0,1,52.374,52.374" transform="translate(-154.498 -87.709)" fill="#fff"/>
      <rect id="Rectangle_68" data-name="Rectangle 68" width="112.224" height="112.224" transform="translate(455.76 200.283)" fill="none" stroke="#b2c3fb" stroke-linecap="round" stroke-linejoin="round" stroke-width="3"/>
      <path id="Path_70" data-name="Path 70" d="M369.36,788.66H647.825" transform="translate(-97.606 -207.793)" fill="none" stroke="#1b3c87" stroke-linecap="round" stroke-linejoin="round" stroke-width="3.69"/>
      <path id="Path_71" data-name="Path 71" d="M1.85,788.66H207.038" transform="translate(-0.776 -207.793)" fill="none" stroke="#1b3c87" stroke-linecap="round" stroke-linejoin="round" stroke-width="3.69"/>
      <path id="Path_72" data-name="Path 72" d="M421.661,265.736l-1.142,5.494-7.66,2.386s-3.793-11.829-4.316-14.5c-3.683,2.747-24.909,8.7-28.57,9.229-.508-2.85-.508-27.553,20.085-27.553,18.141,0,26.272,18.17,26.751,20.3-1.061.619-5.156,2.136-5.156,4.647" transform="translate(-100.369 -63.442)" fill="#eecb55"/>
      <path id="Path_73" data-name="Path 73" d="M425.593,339.222c-4.6,0-38.012,33.711-39.382,40.767L375.45,435.663l55.733-15.592,3.27-70.913-7.94-9.958Z" transform="translate(-99.211 -89.371)" fill="#46dbc9"/>
      <path id="Path_74" data-name="Path 74" d="M350.06,432.111c-.1-3.881,31.9-104.888,35.508-108.321a11.983,11.983,0,0,1,9.111-3.535c1.591.074,9.236,3.683,10.849,7.49-2.755,6.526-9.391,10.149-9.391,10.149l-12.911,79.78Z" transform="translate(-92.521 -84.376)" fill="#fff"/>
      <path id="Path_75" data-name="Path 75" d="M387.236,553.777l46.239,57.235-22.427,22.545L343.17,574.216l16.056-22.1Z" transform="translate(-90.705 -145.47)" fill="#3c3744"/>
      <path id="Path_76" data-name="Path 76" d="M358.081,640.3c-6.231-5.664-79.331-96.72-79.331-107.989,0-25.123,28.5-34.027,36.281-35.987,10.716-.972,58.252-4.949,65.727-4.64,5.391,5.841,68,19.319,77.07,18.155,0,4.544-7.218,36.318-58.421,36.318-5.362,0-45.731-1.613-46.482-1.613,0,9.45,25.874,70.957,28.341,75.125" transform="translate(-73.732 -129.543)" fill="#3c3744"/>
      <path id="Path_77" data-name="Path 77" d="M460.826,316.87c41.444,0,50.415,74.765,50.415,95.984,0,27.052-10.974,48.669-16.2,50.695-14.811,5.693-69.182-12.955-72.629-21.786C405.6,398.749,433.266,316.87,460.856,316.87" transform="translate(-110.235 -83.488)" fill="#46dbc9"/>
      <path id="Path_78" data-name="Path 78" d="M428.36,247.38a37.7,37.7,0,0,1,8.382,10.908q.545,1.061,1.016,2.121" transform="translate(-113.151 -65.179)" fill="none" stroke="#1b3c87" stroke-linecap="round" stroke-linejoin="round" stroke-width="3.69"/>
      <path id="Path_79" data-name="Path 79" d="M380.319,277.563c-7.741-15.04-4.463-32.142,7.321-38.2a20.011,20.011,0,0,1,12.418-1.863" transform="translate(-99.388 -62.499)" fill="none" stroke="#1b3c87" stroke-linecap="round" stroke-linejoin="round" stroke-width="3.69"/>
      <path id="Path_80" data-name="Path 80" d="M426.1,308.135a19.384,19.384,0,0,1-5.575,4.331c-8.043,4.139-17.971,2.062-25.918-4.456" transform="translate(-104.259 -81.153)" fill="none" stroke="#1b3c87" stroke-linecap="round" stroke-linejoin="round" stroke-width="3.69"/>
      <path id="Path_81" data-name="Path 81" d="M433.05,269.486a7.063,7.063,0,1,1,6.592,9.671,6.945,6.945,0,0,1-3.071-.737" transform="translate(-114.387 -69.829)" fill="none" stroke="#1b3c87" stroke-linecap="round" stroke-linejoin="round" stroke-width="3.69"/>
      <path id="Path_82" data-name="Path 82" d="M437.775,334.216c-1.039-3.719-4.773-15.18-9.435-19.466" transform="translate(-113.146 -82.929)" fill="none" stroke="#1b3c87" stroke-linecap="round" stroke-linejoin="round" stroke-width="3.69"/>
      <path id="Path_83" data-name="Path 83" d="M446.2,286.61c1.436,4.832,14.421,22.25,17.618,24.666-.192,2.1-4.323,6.157-8.971,9.575" transform="translate(-117.851 -75.515)" fill="none" stroke="#1b3c87" stroke-linecap="round" stroke-linejoin="round" stroke-width="3.69"/>
      <path id="Path_84" data-name="Path 84" d="M423.67,278.392l5.767-1.79,1.142-5.5" transform="translate(-111.915 -71.428)" fill="none" stroke="#1b3c87" stroke-linecap="round" stroke-linejoin="round" stroke-width="3.69"/>
      <path id="Path_85" data-name="Path 85" d="M402.61,265.942c4.287-1.429,7.947-2.85,9.3-3.852.376,1.944,2.489,8.735,3.609,12.285" transform="translate(-106.367 -69.054)" fill="none" stroke="#1b3c87" stroke-linecap="round" stroke-linejoin="round" stroke-width="3.69"/>
      <path id="Path_86" data-name="Path 86" d="M376.44,273.714c1.414-.206,5.428-1.215,10.046-2.534" transform="translate(-99.471 -71.449)" fill="none" stroke="#1b3c87" stroke-linecap="round" stroke-linejoin="round" stroke-width="3.69"/>
      <path id="Path_87" data-name="Path 87" d="M428.086,472.421c-5.819-2.9-9.862-5.723-10.724-7.932-5.156-13.257-6.135-30.234-4.161-47.359" transform="translate(-108.907 -109.904)" fill="none" stroke="#1b3c87" stroke-linecap="round" stroke-linejoin="round" stroke-width="3.69"/>
      <path id="Path_88" data-name="Path 88" d="M514.869,384.27a194.757,194.757,0,0,1,5.737,42.652c0,27.06-10.974,48.677-16.2,50.695-6.945,2.674-22.574,0-37.563-4.522" transform="translate(-123.29 -101.246)" fill="none" stroke="#1b3c87" stroke-linecap="round" stroke-linejoin="round" stroke-width="3.69"/>
      <path id="Path_89" data-name="Path 89" d="M463.92,312.921a15.467,15.467,0,0,1,5.509-1.061c10.923,0,19.592,5.2,26.434,13.257" transform="translate(-122.52 -82.168)" fill="none" stroke="#1b3c87" stroke-linecap="round" stroke-linejoin="round" stroke-width="3.69"/>
      <path id="Path_90" data-name="Path 90" d="M424.76,360.185a120.233,120.233,0,0,1,11.048-23.5" transform="translate(-112.203 -88.71)" fill="none" stroke="#1b3c87" stroke-linecap="round" stroke-linejoin="round" stroke-width="3.69"/>
      <path id="Path_91" data-name="Path 91" d="M389.77,324.26c1.223-3.093,2.121-5.045,2.57-5.48a11.983,11.983,0,0,1,9.111-3.535c1.591.074,9.236,3.683,10.849,7.49" transform="translate(-102.983 -83.056)" fill="none" stroke="#1b3c87" stroke-linecap="round" stroke-linejoin="round" stroke-width="3.69"/>
      <path id="Path_92" data-name="Path 92" d="M357.3,404.869c5.428-17.353,12.322-38.572,17.758-54.319" transform="translate(-94.428 -92.362)" fill="none" stroke="#1b3c87" stroke-linecap="round" stroke-linejoin="round" stroke-width="3.69"/>
      <path id="Path_93" data-name="Path 93" d="M345.05,462.479c0-.737,1.083-4.81,2.9-10.989" transform="translate(-91.201 -118.957)" fill="none" stroke="#1b3c87" stroke-linecap="round" stroke-linejoin="round" stroke-width="3.69"/>
      <path id="Path_94" data-name="Path 94" d="M407.31,324.3c1.576.25,5.384,2.57,7.365,4.891" transform="translate(-107.605 -85.445)" fill="none" stroke="#1b3c87" stroke-linecap="round" stroke-linejoin="round" stroke-width="3.69"/>
      <path id="Path_95" data-name="Path 95" d="M401.32,331.89c1.569.25,5.384,2.57,7.365,4.891" transform="translate(-106.027 -87.445)" fill="none" stroke="#1b3c87" stroke-linecap="round" stroke-linejoin="round" stroke-width="3.69"/>
      <path id="Path_96" data-name="Path 96" d="M390.09,419.578c.125-3.535,8.838-64.5,12.69-76.488" transform="translate(-103.068 -90.396)" fill="none" stroke="#1b3c87" stroke-linecap="round" stroke-linejoin="round" stroke-width="3.69"/>
      <path id="Path_97" data-name="Path 97" d="M415.5,347.969c5.362-5.738,11.858-11.9,17.073-14.4" transform="translate(-109.763 -87.888)" fill="none" stroke="#1b3c87" stroke-linecap="round" stroke-linejoin="round" stroke-width="3.69"/>
      <path id="Path_98" data-name="Path 98" d="M185.91,395l33.88,55.063" transform="translate(-49.271 -104.073)" fill="none" stroke="#1b3c87" stroke-linecap="round" stroke-linejoin="round" stroke-width="3.69"/>
      <path id="Path_99" data-name="Path 99" d="M479.353,511.33c0,4.544-7.211,36.318-58.421,36.318-5.362,0-45.731-1.613-46.482-1.613,0,9.45,25.874,70.957,28.341,75.125" transform="translate(-98.947 -134.723)" fill="none" stroke="#1b3c87" stroke-linecap="round" stroke-linejoin="round" stroke-width="3.69"/>
      <path id="Path_100" data-name="Path 100" d="M310.019,493c-7.52,2.814-36.289,10.864-36.289,35.987,0,11.269,73.085,102.325,79.331,107.989" transform="translate(-72.41 -129.894)" fill="none" stroke="#1b3c87" stroke-linecap="round" stroke-linejoin="round" stroke-width="3.69"/>
      <path id="Path_101" data-name="Path 101" d="M376.49,686.359,410.009,665" transform="translate(-99.485 -175.212)" fill="none" stroke="#1b3c87" stroke-linecap="round" stroke-linejoin="round" stroke-width="3.69"/>
      <path id="Path_102" data-name="Path 102" d="M381.45,694.509l34.565-20.939" transform="translate(-100.791 -177.47)" fill="none" stroke="#1b3c87" stroke-linecap="round" stroke-linejoin="round" stroke-width="3.69"/>
      <path id="Path_103" data-name="Path 103" d="M400.22,631.33,421.7,650.737" transform="translate(-105.737 -166.34)" fill="none" stroke="#1b3c87" stroke-linecap="round" stroke-linejoin="round" stroke-width="3.69"/>
      <path id="Path_104" data-name="Path 104" d="M417.33,573.17,449.3,612.876" transform="translate(-110.245 -151.017)" fill="none" stroke="#1b3c87" stroke-linecap="round" stroke-linejoin="round" stroke-width="3.69"/>
      <path id="Path_105" data-name="Path 105" d="M455.656,623.21,427.41,650.66" transform="translate(-112.901 -164.201)" fill="none" stroke="#1b3c87" stroke-linecap="round" stroke-linejoin="round" stroke-width="3.69"/>
      <path id="Path_106" data-name="Path 106" d="M460.5,630.4,432.25,657.85" transform="translate(-114.176 -166.095)" fill="none" stroke="#1b3c87" stroke-linecap="round" stroke-linejoin="round" stroke-width="3.69"/>
      <path id="Path_107" data-name="Path 107" d="M165.11,755.52v24.408" transform="translate(-43.791 -199.062)" fill="none" stroke="#1b3c87" stroke-linecap="round" stroke-linejoin="round" stroke-width="3.69"/>
      <path id="Path_108" data-name="Path 108" d="M165.11,493V641.041" transform="translate(-43.791 -129.894)" fill="none" stroke="#1b3c87" stroke-linecap="round" stroke-linejoin="round" stroke-width="3.69"/>
      <path id="Path_109" data-name="Path 109" d="M318.15,493V710.761" transform="translate(-84.113 -129.894)" fill="none" stroke="#1b3c87" stroke-linecap="round" stroke-linejoin="round" stroke-width="3.69"/>
      <path id="Path_110" data-name="Path 110" d="M483.24,341.047c19.732,6.864,9.685,49.126,4.132,50.555s-39.036-11.821-40.082-15.386,12.9-43.2,35.95-35.169" transform="translate(-118.124 -89.576)" fill="#46dbc9"/>
      <path id="Path_111" data-name="Path 111" d="M456.868,342.268c5.708-5.723,12.926-9.17,21.359-6.231,19.731,6.864,9.685,49.126,4.125,50.555s-39.036-11.821-40.082-15.386c-.25-.84.331-3.683,1.679-7.454" transform="translate(-116.801 -88.256)" fill="none" stroke="#1b3c87" stroke-linecap="round" stroke-linejoin="round" stroke-width="3.69"/>
      <path id="Path_112" data-name="Path 112" d="M412.763,392c-1.606,2.357-10.5,31.1-10.5,31.1s-62.8,27.082-65.934,28.481c-1.142-1.561-4.9-4.419-12.521-4.419-13.957,0-16.373,9.258-16.373,11.247s21.219,6.408,26.913,6.268,85.3-12.248,88.147-13.67,21.9-46.4,21.9-46.4c-5.156-.272-28.923-7.63-31.619-12.6" transform="translate(-81.292 -103.283)" fill="#fff"/>
      <path id="Path_113" data-name="Path 113" d="M371.842,453.729c-20.092,3.071-39.772,5.892-42.52,5.951-5.693.147-26.913-4.272-26.913-6.268s2.416-11.247,16.373-11.247c7.638,0,11.394,2.85,12.521,4.419,3.13-1.421,65.934-28.481,65.934-28.481s8.89-28.724,10.5-31.1" transform="translate(-79.966 -101.965)" fill="none" stroke="#1b3c87" stroke-linecap="round" stroke-linejoin="round" stroke-width="3.69"/>
      <path id="Path_114" data-name="Path 114" d="M474.235,404.1s-19.047,44.994-21.9,46.4c-.81.405-7.829,1.679-17.588,3.285" transform="translate(-114.835 -106.471)" fill="none" stroke="#1b3c87" stroke-linecap="round" stroke-linejoin="round" stroke-width="3.69"/>
      <rect id="Rectangle_69" data-name="Rectangle 69" width="121.549" height="11.276" transform="translate(304.507 414.56)" fill="#8088dc"/>
      <path id="Path_115" data-name="Path 115" d="M484.878,569.136H408.81V557.86H530.336v11.276H508.977" transform="translate(-108 -146.983)" fill="none" stroke="#1b3c87" stroke-linecap="round" stroke-linejoin="round" stroke-width="3.69"/>
      <rect id="Rectangle_70" data-name="Rectangle 70" width="184.934" height="9.28" transform="translate(88.374 356.971)" fill="#8088dc"/>
      <path id="Path_116" data-name="Path 116" d="M167.514,480.38h133.51v9.295H116.09v-9.28h28.459" transform="translate(-30.875 -126.569)" fill="none" stroke="#1b3c87" stroke-linecap="round" stroke-linejoin="round" stroke-width="3.69"/>
      <rect id="Rectangle_71" data-name="Rectangle 71" width="65.131" height="7.807" transform="translate(173.693 349.164)" fill="#fb5d64"/>
      <rect id="Rectangle_72" data-name="Rectangle 72" width="65.131" height="7.807" transform="translate(170.534 346.004)" fill="none" stroke="#1b3c87" stroke-linecap="round" stroke-linejoin="round" stroke-width="3.69"/>
      <path id="Path_117" data-name="Path 117" d="M390.07,699.484l21.359,23.355-11.681,32.407,35.832-27.863L414.81,684.54" transform="translate(-103.063 -180.36)" fill="#fff"/>
      <path id="Path_118" data-name="Path 118" d="M431.07,705.146,418.63,679.5" transform="translate(-110.587 -179.032)" fill="none" stroke="#1b3c87" stroke-linecap="round" stroke-linejoin="round" stroke-width="3.69"/>
      <path id="Path_119" data-name="Path 119" d="M385.07,699.82l21.359,23.355-11.674,32.407L430.58,727.72l-3.653-7.513" transform="translate(-101.745 -184.386)" fill="none" stroke="#1b3c87" stroke-linecap="round" stroke-linejoin="round" stroke-width="3.69"/>
      <path id="Path_120" data-name="Path 120" d="M462.479,641.31l11.895,20.2,8.212,4.272-15.629,36.3-3.565-22.832-20.623-18.8" transform="translate(-116.948 -168.97)" fill="#fff"/>
      <path id="Path_121" data-name="Path 121" d="M443.116,667.079l-5.266-4.81" transform="translate(-115.651 -174.492)" fill="none" stroke="#1b3c87" stroke-linecap="round" stroke-linejoin="round" stroke-width="3.69"/>
      <path id="Path_122" data-name="Path 122" d="M463.266,636.31,475.161,656.5l8.212,4.279-15.629,36.3-3.565-22.832L459.76,670.2" transform="translate(-121.424 -167.653)" fill="none" stroke="#1b3c87" stroke-linecap="round" stroke-linejoin="round" stroke-width="3.69"/>
      <path id="Path_123" data-name="Path 123" d="M451.43,573.17V730.786" transform="translate(-119.229 -151.017)" fill="none" stroke="#1b3c87" stroke-linecap="round" stroke-linejoin="round" stroke-width="3.69"/>
      <path id="Path_124" data-name="Path 124" d="M531.24,654.85v97.479" transform="translate(-140.257 -172.537)" fill="none" stroke="#1b3c87" stroke-linecap="round" stroke-linejoin="round" stroke-width="3.69"/>
      <path id="Path_125" data-name="Path 125" d="M531.24,573.17v33.2" transform="translate(-140.257 -151.017)" fill="none" stroke="#1b3c87" stroke-linecap="round" stroke-linejoin="round" stroke-width="3.69"/>
      <path id="Path_126" data-name="Path 126" d="M403.153,277.573c.361,1.252,1.2,2.106,1.878,1.908s.943-1.363.582-2.607-1.193-2.106-1.878-1.885-.935,1.363-.582,2.607" transform="translate(-106.467 -72.444)" fill="#1b3c87"/>
      <path id="Path_127" data-name="Path 127" d="M391.957,297.2a6,6,0,0,1-.427,1.348" transform="translate(-103.447 -78.305)" fill="none" stroke="#1b3c87" stroke-linecap="round" stroke-linejoin="round" stroke-width="3.14"/>
      <path id="Path_128" data-name="Path 128" d="M391.05,287.29a16.313,16.313,0,0,1,.957,5.06" transform="translate(-103.321 -75.694)" fill="none" stroke="#1b3c87" stroke-linecap="round" stroke-linejoin="round" stroke-width="3.14"/>
      <path id="Path_129" data-name="Path 129" d="M417.274,296.24c.214,1.65-.943,4.213-3.174,5.708" transform="translate(-109.394 -78.052)" fill="none" stroke="#1b3c87" stroke-linecap="round" stroke-linejoin="round" stroke-width="3.14"/>
      <rect id="Rectangle_73" data-name="Rectangle 73" width="194.022" height="58.539" transform="translate(15.164 187.386)" fill="#d7e0ff"/>
      <path id="Path_130" data-name="Path 130" d="M249.525,287.65a17.087,17.087,0,1,1-17.085-17.08,17.087,17.087,0,0,1,17.085,17.08" transform="translate(-57.028 -71.289)" fill="#b2c3fb"/>
      <path id="Path_131" data-name="Path 131" d="M160.23,280.31H63.79" transform="translate(-17.096 -73.855)" fill="none" stroke="#eaf0ff" stroke-linecap="round" stroke-linejoin="round" stroke-width="3.69"/>
      <path id="Path_132" data-name="Path 132" d="M176.45,307.22h-51.1" transform="translate(-33.315 -80.945)" fill="none" stroke="#eaf0ff" stroke-linecap="round" stroke-linejoin="round" stroke-width="3.69"/>
      <rect id="Rectangle_74" data-name="Rectangle 74" width="115.31" height="146.318" transform="translate(160.2)" fill="#eaf0ff"/>
      <path id="Path_133" data-name="Path 133" d="M278.75,71.23l33.806,79.464,70.964-49.266Z" transform="translate(-73.732 -18.767)" fill="none" stroke="#b2c3fb" stroke-linecap="round" stroke-linejoin="round" stroke-width="3"/>
      <rect id="Rectangle_75" data-name="Rectangle 75" width="66.398" height="27.73" transform="translate(38.011 73.557)" fill="#eaf0ff"/>
      <rect id="Rectangle_76" data-name="Rectangle 76" width="66.398" height="27.73" transform="translate(7.114 107.834)" fill="#eaf0ff"/>
    </g>
  </g>
</svg>
